<?xml version="1.0" encoding="iso-8859-1"?>
<!-- Uploaded to: SVG Repo, www.svgrepo.com, Transformed by: SVG Repo Tools -->
<!DOCTYPE svg PUBLIC "-//W3C//DTD SVG 1.1//EN" "http://www.w3.org/Graphics/SVG/1.1/DTD/svg11.dtd">
<svg fill="#000000" height="800px" width="800px" version="1.1" id="Capa_1" xmlns="http://www.w3.org/2000/svg" xmlns:xlink="http://www.w3.org/1999/xlink" 
	 viewBox="0 0 47 47" xml:space="preserve">
<path d="M46.707,0.293c-0.391-0.391-1.023-0.391-1.414,0L2,43.586V19c0-0.552-0.447-1-1-1s-1,0.448-1,1v27
	c0,0.13,0.027,0.26,0.077,0.382c0.101,0.245,0.296,0.44,0.541,0.541C0.74,46.973,0.87,47,1,47h27c0.553,0,1-0.448,1-1s-0.447-1-1-1
	H3.414L46.707,1.707C47.098,1.316,47.098,0.684,46.707,0.293z"/>
<g>
</g>
<g>
</g>
<g>
</g>
<g>
</g>
<g>
</g>
<g>
</g>
<g>
</g>
<g>
</g>
<g>
</g>
<g>
</g>
<g>
</g>
<g>
</g>
<g>
</g>
<g>
</g>
<g>
</g>
</svg>